<svg viewBox="0 0 933 942" xmlns="http://www.w3.org/2000/svg">
  <defs>
    <linearGradient x1="0%" y1="50%" x2="83.49%" y2="50%" id="forkast-gradient">
      <stop stop-color="#10D0AF" offset="0%"/>
      <stop stop-color="#16CAC2" offset="24%"/>
      <stop stop-color="#25B9F3" offset="73%"/>
      <stop stop-color="#28B5FE" offset="100%"/>
    </linearGradient>
  </defs>
  <g fill="url(#forkast-gradient)" fill-rule="evenodd">
    <path d="M924.982 242.465 824.269 68.112C794.581 16.883 769.257 0 709.296 0h-327.75c-59.961 0-85.285 16.883-114.975 68.112C180.704 216.851 94.836 365.881 8.971 514.619c-12.807 21.831-11.352 62.873 0.871 84.412l167.076 289.037c37.258 64.326 97.511 75.387 137.969 5.239l158.636-274.774 185.123-.583c48.319-.291 85.867-54.012 63.164-94.18l-94.891-167.368c-2.91-4.95-5.822-9.606-8.441-13.973h239.262c51.523 0 91.4-57.05 67.241-98.965ZM246.778 877.59 92.218 617.95h309.121L246.778 877.59Zm318.436-510.254c1.455 2.329 2.91 4.948 4.365 7.86l89.651 174.353c-.583.291-.872.872-1.455.872H67.767c-.581 0-.872-1.164.583-2.91l99.547-171.735c15.428-29.688 18.047-34.346 48.9-34.346h285.254c11.059 0 19.501-.291 26.196 0h3.492c15.719.874 22.413 5.53 33.474 25.906Zm292.53-93.725h-624.647c-1.455 0-3.493-1.457-4.948-3.203l97.22-168.24c17.172-29.982 21.539-34.346 56.177-34.346h327.75c34.638 0 39.003 4.365 56.177 34.346l97.218 168.24c-1.454 1.746-3.492 3.203-4.947 3.203Z"/>
  </g>
</svg>

